<svg width="300" height="124" viewBox="0 0 300 124" fill="none" xmlns="http://www.w3.org/2000/svg">
<g clip-path="url(#clip0_8_332)">
<path d="M153.968 35.4569C153.651 35.7728 153.651 36.2853 153.967 36.6015C156.094 38.7294 156.092 42.1929 153.964 44.3222C153.648 44.6386 153.648 45.1509 153.965 45.467C154.123 45.6249 154.33 45.704 154.537 45.704C154.744 45.704 154.951 45.6248 155.11 45.4667C157.868 42.7063 157.869 38.2162 155.112 35.4571C154.797 35.141 154.284 35.1407 153.968 35.4569Z" fill="#1554F6"/>
<path d="M150.942 37.779C150.625 38.0948 150.625 38.6074 150.941 38.9235C151.789 39.7719 151.789 41.1523 150.941 42.0006C150.625 42.3168 150.625 42.8293 150.941 43.1453C151.099 43.3034 151.307 43.3822 151.514 43.3822C151.721 43.3822 151.928 43.3032 152.086 43.1449C153.564 41.6656 153.565 39.2585 152.086 37.7793C151.77 37.4629 151.258 37.4627 150.942 37.779Z" fill="#1554F6"/>
<path d="M158.696 31.8717C158.38 31.5554 157.867 31.5552 157.551 31.8712C157.235 32.1872 157.235 32.6998 157.551 33.016C161.653 37.1203 161.651 43.8001 157.547 47.9064C157.231 48.2225 157.231 48.7351 157.547 49.0511C157.705 49.209 157.912 49.2881 158.119 49.2881C158.326 49.2881 158.534 49.2089 158.692 49.0508C163.426 44.3136 163.428 36.607 158.696 31.8717Z" fill="#1554F6"/>
<path d="M144.178 45.6825C146.26 45.5391 147.909 43.7993 147.909 41.6798C147.909 39.4669 146.111 37.6667 143.9 37.6667C141.69 37.6667 139.891 39.4669 139.891 41.6798C139.891 43.7991 141.541 45.539 143.623 45.6825C142.064 45.7424 140.692 46.3054 139.735 47.2843C138.753 48.29 138.254 49.6825 138.291 51.3113C138.302 51.7508 138.661 52.102 139.101 52.102H148.7C149.139 52.102 149.499 51.7508 149.509 51.3111C149.547 49.6822 149.047 48.2896 148.064 47.2839C147.108 46.3053 145.736 45.7424 144.178 45.6825ZM141.51 41.6798C141.51 40.3598 142.583 39.2856 143.9 39.2856C145.218 39.2856 146.29 40.3597 146.29 41.6798C146.29 43.0002 145.218 44.0743 143.9 44.0743C142.583 44.0743 141.51 43.0002 141.51 41.6798ZM139.948 50.483C140.053 49.645 140.37 48.9519 140.894 48.4158C141.599 47.6934 142.667 47.2956 143.9 47.2956C145.133 47.2956 146.201 47.6933 146.906 48.4154C147.43 48.9515 147.747 49.6448 147.852 50.483H139.948Z" fill="#1554F6"/>
</g>
<path d="M84.55 92C84.108 92 83.836 91.796 83.836 91.524V91.422C83.836 90.674 85.094 90.504 85.094 89.178V70.682C85.094 69.322 83.836 69.22 83.836 68.438V68.336C83.836 68.03 84.108 67.86 84.55 67.86H89.888C90.33 67.86 90.636 68.03 90.636 68.336V68.438C90.636 69.22 89.242 69.322 89.242 70.682V88.668C89.242 89.552 89.65 90.266 90.5 90.266H96.722C99 90.266 99.442 86.186 100.768 86.186H101.108C101.482 86.186 101.686 86.424 101.584 86.866L100.734 91.116C100.598 91.694 100.36 92 99.748 92H84.55ZM120.588 76.938C120.588 77.516 119.228 77.822 119.228 79.318V89.178C119.228 90.504 120.52 90.708 120.52 91.422V91.524C120.52 91.83 120.316 92 119.942 92H116.406C116.032 92 115.76 91.728 115.76 91.354V89.994C114.672 91.524 112.802 92.34 110.864 92.34C106.716 92.34 102.942 89.11 102.942 83.806C102.942 78.808 106.478 75.34 110.932 75.34C113.006 75.34 114.638 76.19 115.76 77.482V76.224C115.76 75.646 116.236 75.306 117.018 75.51L119.976 76.122C120.384 76.224 120.588 76.462 120.588 76.836V76.938ZM111.782 91.048C113.448 91.048 115.386 89.62 115.386 86.662V81.222C115.386 79.046 113.448 76.632 111.068 76.632C108.552 76.632 106.886 78.808 106.818 82.412C106.716 87.036 108.688 90.98 111.782 91.048ZM137.552 87.206C137.994 87.206 138.232 87.478 138.062 88.056L137.11 91.252C136.974 91.66 136.702 92 136.26 92H123.408C123.034 92 122.66 91.694 122.66 91.32V91.048C122.66 90.674 123 90.266 123.204 89.96L132.622 76.87H127.454C125.516 76.87 124.904 80.27 123.544 80.27H123.374C122.898 80.27 122.66 79.862 122.864 79.284L123.714 76.53C123.918 75.986 124.088 75.68 124.7 75.68H136.362C136.736 75.68 137.042 75.986 137.042 76.36V76.7C137.042 76.938 136.702 77.448 136.328 77.958L126.944 90.81H133.03C135.206 90.81 135.988 87.206 137.348 87.206H137.552ZM157.012 76.938C157.012 77.516 155.652 77.822 155.652 79.318V89.178C155.652 90.504 156.944 90.708 156.944 91.422V91.524C156.944 91.83 156.74 92 156.366 92H152.83C152.456 92 152.184 91.728 152.184 91.354V89.994C151.096 91.524 149.226 92.34 147.288 92.34C143.14 92.34 139.366 89.11 139.366 83.806C139.366 78.808 142.902 75.34 147.356 75.34C149.43 75.34 151.062 76.19 152.184 77.482V76.224C152.184 75.646 152.66 75.306 153.442 75.51L156.4 76.122C156.808 76.224 157.012 76.462 157.012 76.836V76.938ZM148.206 91.048C149.872 91.048 151.81 89.62 151.81 86.662V81.222C151.81 79.046 149.872 76.632 147.492 76.632C144.976 76.632 143.31 78.808 143.242 82.412C143.14 87.036 145.112 90.98 148.206 91.048ZM168.842 75.34C170.848 75.34 171.97 76.632 171.97 78.196C171.97 79.352 171.494 80.338 170.202 80.338C167.992 80.338 169.012 77.686 167.04 77.686C165.442 77.686 164.694 79.692 164.694 81.902V89.178C164.694 90.504 166.258 90.64 166.258 91.388V91.524C166.258 91.83 165.986 92 165.544 92H160.274C159.832 92 159.56 91.83 159.56 91.524V91.388C159.56 90.64 160.852 90.504 160.852 89.178V80.032C160.852 78.638 159.39 78.57 159.39 77.822V77.72C159.39 77.448 159.628 77.21 160.002 77.006L163.334 75.476C164.048 75.136 164.32 75.476 164.32 76.054V78.706C165.068 76.53 166.666 75.34 168.842 75.34ZM176.569 72.858C174.869 72.858 173.747 71.804 173.747 70.308C173.747 68.846 174.869 67.758 176.569 67.758C178.235 67.758 179.323 68.846 179.323 70.308C179.323 71.804 178.235 72.858 176.569 72.858ZM174.053 92C173.611 92 173.339 91.796 173.339 91.49V91.354C173.339 90.606 174.597 90.47 174.597 89.144V80.236C174.597 78.842 173.339 78.502 173.339 77.89V77.788C173.339 77.516 173.577 77.38 173.951 77.176L177.351 75.476C178.133 75.102 178.575 75.51 178.575 76.054V89.144C178.575 90.47 179.969 90.606 179.969 91.354V91.49C179.969 91.796 179.663 92 179.221 92H174.053ZM182.847 92C182.405 92 182.133 91.796 182.133 91.49V91.388C182.133 90.606 183.391 90.504 183.391 89.178V71.26C183.391 69.832 182.133 69.56 182.133 68.948V68.846C182.133 68.54 182.371 68.404 182.711 68.234L186.145 66.534C186.927 66.16 187.369 66.568 187.369 67.078V89.178C187.369 90.504 188.763 90.606 188.763 91.388V91.49C188.763 91.796 188.457 92 188.015 92H182.847ZM191.579 92C191.137 92 190.865 91.796 190.865 91.49V91.388C190.865 90.606 192.123 90.504 192.123 89.178V71.26C192.123 69.832 190.865 69.56 190.865 68.948V68.846C190.865 68.54 191.103 68.404 191.443 68.234L194.877 66.534C195.659 66.16 196.101 66.568 196.101 67.078V89.178C196.101 90.504 197.495 90.606 197.495 91.388V91.49C197.495 91.796 197.189 92 196.747 92H191.579ZM208.71 92.34C202.93 92.34 199.496 88.192 199.496 83.67C199.496 78.842 203.27 75.34 207.928 75.34C213.3 75.34 216.904 79.25 216.904 83.942C216.904 88.6 213.64 92.34 208.71 92.34ZM209.22 91.048C211.328 91.048 212.892 89.008 212.892 85.336C212.892 80.576 210.614 76.632 207.486 76.632C205.072 76.632 203.508 78.604 203.508 82.344C203.508 86.56 205.786 91.048 209.22 91.048Z" fill="#1554F6"/>
<defs>
<clipPath id="clip0_8_332">
<rect width="34.4" height="32" fill="white" transform="translate(133 26)"/>
</clipPath>
</defs>
</svg>
