<svg width="230" height="230" viewBox="0 0 230 230" fill="none" xmlns="http://www.w3.org/2000/svg">
<path d="M107.047 104.088C107.047 101.579 105.098 99.5721 102.726 99.5721C100.355 99.5721 98.4048 101.58 98.4048 104.088C98.4048 106.595 100.355 108.603 102.726 108.603C105.098 108.603 107.047 106.596 107.047 104.088ZM111.487 104.088C111.487 109.019 107.58 113.043 102.726 113.043C97.8731 113.043 93.9648 109.019 93.9648 104.088C93.9648 99.1563 97.8731 95.1321 102.726 95.1321C107.58 95.1321 111.487 99.156 111.487 104.088ZM130.595 124.967C130.595 122.459 128.646 120.452 126.274 120.452C123.903 120.452 121.953 122.46 121.953 124.967C121.953 127.475 123.903 129.483 126.274 129.483C128.646 129.483 130.595 127.475 130.595 124.967ZM135.035 124.967C135.035 129.899 131.127 133.923 126.274 133.923C121.421 133.923 117.513 129.899 117.513 124.967C117.513 120.036 121.421 116.012 126.274 116.012C131.127 116.012 135.035 120.036 135.035 124.967ZM124.681 100.52L98.5175 127.462C97.6633 128.342 97.6839 129.747 98.5635 130.601C99.443 131.456 100.849 131.435 101.703 130.555L127.867 103.614C128.721 102.734 128.7 101.329 127.821 100.474C126.941 99.6202 125.536 99.6408 124.681 100.52Z" fill="#65558F"/>
<path d="M148.91 157.845C153.814 157.845 157.79 153.869 157.79 148.965V80.0904C157.79 75.1859 153.814 71.2104 148.91 71.2104H80.09C75.1855 71.2104 71.21 75.1859 71.21 80.0904V148.965C71.21 153.869 75.1855 157.845 80.09 157.845H148.91ZM148.91 162.285H80.09C72.7334 162.285 66.77 156.321 66.77 148.965V80.0904C66.77 72.7338 72.7334 66.7704 80.09 66.7704H148.91C156.267 66.7704 162.23 72.7338 162.23 80.0904V148.965C162.23 156.321 156.267 162.285 148.91 162.285Z" fill="#65558F"/>
</svg>
